<?xml version="1.0" standalone="no"?>
<!DOCTYPE svg PUBLIC "-//W3C//DTD SVG 20010904//EN"
 "http://www.w3.org/TR/2001/REC-SVG-20010904/DTD/svg10.dtd">
<svg version="1.0" xmlns="http://www.w3.org/2000/svg"
 width="360.000000pt" height="167.000000pt" viewBox="0 0 360.000000 167.000000"
 preserveAspectRatio="xMidYMid meet">

<g transform="translate(0.000000,167.000000) scale(0.100000,-0.100000)"
fill="#fff" stroke="none">
<path d="M2550 835 l0 -205 55 0 55 0 0 205 0 205 -55 0 -55 0 0 -205z"/>
<path d="M1827 1016 c-68 -25 -92 -55 -107 -136 -29 -153 49 -250 200 -250
102 0 164 43 177 123 l6 37 -56 0 c-47 0 -57 -3 -62 -20 -18 -56 -88 -69 -124
-24 -23 29 -29 103 -11 148 22 58 102 59 126 0 14 -33 16 -34 69 -34 54 0 55
1 55 29 0 41 -39 93 -90 119 -51 25 -124 29 -183 8z"/>
<path d="M432 1008 c-7 -7 -12 -24 -12 -40 0 -61 -98 -230 -140 -243 -29 -9
-43 -40 -30 -65 12 -23 59 -27 78 -7 9 8 50 12 132 12 82 0 123 -4 132 -12 19
-20 66 -16 78 7 13 25 8 34 -49 86 -53 48 -111 156 -117 216 -2 23 -10 45 -16
50 -19 11 -42 10 -56 -4z m40 -33 c0 -5 -5 -11 -11 -13 -6 -2 -11 4 -11 13 0
9 5 15 11 13 6 -2 11 -8 11 -13z m41 -111 c44 -58 80 -144 66 -159 -12 -12
-156 -20 -204 -11 -26 5 -35 12 -35 27 0 45 100 204 124 196 6 -2 28 -26 49
-53z m137 -185 c0 -5 -7 -9 -15 -9 -15 0 -20 12 -9 23 8 8 24 -1 24 -14z
m-350 1 c0 -5 -4 -10 -10 -10 -5 0 -10 5 -10 10 0 6 5 10 10 10 6 0 10 -4 10
-10z"/>
<path d="M1130 975 c-10 -37 -17 -45 -36 -45 -21 0 -24 -5 -24 -35 0 -28 4
-35 19 -35 17 0 19 -9 23 -95 4 -119 11 -128 108 -133 l70 -4 0 35 c0 31 -3
36 -27 39 -28 3 -28 4 -31 81 l-3 77 31 0 c28 0 30 3 30 35 0 32 -2 35 -30 35
-29 0 -30 2 -30 45 l0 45 -44 0 c-43 0 -44 0 -56 -45z"/>
<path d="M1421 927 c-118 -45 -121 -243 -4 -288 13 -5 50 -9 81 -9 109 0 163
52 163 156 0 61 -14 91 -63 127 -32 24 -130 32 -177 14z m117 -79 c18 -18 15
-113 -4 -132 -24 -24 -61 -20 -80 9 -19 30 -15 112 7 126 20 13 63 11 77 -3z"/>
<path d="M2230 918 c-61 -31 -83 -74 -77 -150 8 -96 59 -138 170 -138 106 0
160 53 160 156 0 93 -50 142 -151 151 -46 4 -66 0 -102 -19z m128 -70 c18 -18
15 -113 -4 -132 -24 -24 -61 -20 -80 9 -19 30 -15 112 7 126 20 13 63 11 77
-3z"/>
<path d="M2815 928 c-63 -22 -95 -71 -95 -145 0 -99 58 -153 163 -153 117 0
167 47 167 157 0 55 -3 66 -31 97 -45 52 -130 70 -204 44z m113 -80 c18 -18
15 -113 -4 -132 -22 -23 -60 -20 -78 6 -21 29 -21 102 0 122 18 19 65 21 82 4z"/>
<path d="M3236 917 c-23 -23 -25 -23 -29 -6 -4 15 -15 19 -51 19 l-46 0 0
-150 0 -150 54 0 54 0 3 86 c4 76 7 88 28 105 13 10 36 19 53 19 29 0 29 1 26
48 -3 45 -4 47 -35 50 -24 2 -39 -3 -57 -21z"/>
<path d="M712 806 c3 -116 5 -126 27 -150 31 -33 100 -36 149 -6 l34 21 5 -21
c4 -16 13 -20 49 -20 l44 0 0 150 0 150 -55 0 -55 0 0 -94 c0 -100 -10 -126
-50 -126 -30 0 -40 32 -40 129 l0 91 -56 0 -56 0 4 -124z"/>
</g>
</svg>
