<?xml version="1.0" standalone="no"?><!DOCTYPE svg PUBLIC "-//W3C//DTD SVG 1.1//EN" "http://www.w3.org/Graphics/SVG/1.1/DTD/svg11.dtd"><svg t="1557558791116" class="icon" style="" viewBox="0 0 1024 1024" version="1.1" xmlns="http://www.w3.org/2000/svg" p-id="2422" xmlns:xlink="http://www.w3.org/1999/xlink" width="200" height="200"><defs><style type="text/css"></style></defs><path d="M240.992 450.016v-30.016q0-58.016 22.016-112.992 20.992-52 59.008-91.008 38.016-40 84.992-60.992l0.992-0.992q48.992-22.016 104-22.016 54.016 0 104 22.016 48 22.016 86.016 60.992 20.992 23.008 52.992 83.008 10.016 20 31.008 20h14.016q14.016 0 21.504-11.488t2.496-24.512q-26.016-64-72.992-112.992-46.016-50.016-107.008-76.992-63.008-28-132-28t-132 28Q319.04 119.04 272.032 168.544t-72 113.504q-27.008 66.016-27.008 139.008v470.016q0 28.992 19.488 48.992t46.496 20H784q28 0 47.008-20t19.008-48.992l0.992-376.992q0-26.016-19.008-44.992t-44.992-19.008H240.992z m542.016 440.992q0 0.992-0.992 0.992H242.016q-0.992 0-0.992-0.992V518.016H783.04v372.992zM480 672v90.016q0 12.992 9.504 22.016t22.496 8.992 22.496-8.992 9.504-22.016V672q27.008-16.992 27.008-48.992 0-24.992-17.504-42.016T512 564t-41.504 16.992-17.504 42.016q0 32 27.008 48.992z" p-id="2423"></path></svg>